<?xml version="1.0" encoding="UTF-8" standalone="no"?>
<!-- Created with Inkscape (http://www.inkscape.org/) -->

<svg
   version="1.1"
   id="svg1"
   width="167.4541"
   height="92.124603"
   viewBox="0 0 167.4541 92.124602"
   sodipodi:docname="260526-墨翰設計-薩斯寰宇敘事-LOGO-OK (1).svg"
   inkscape:version="1.4.4 (dcaf3e7, 2026-05-05)"
   xmlns:inkscape="http://www.inkscape.org/namespaces/inkscape"
   xmlns:sodipodi="http://sodipodi.sourceforge.net/DTD/sodipodi-0.dtd"
   xmlns="http://www.w3.org/2000/svg"
   xmlns:svg="http://www.w3.org/2000/svg">
  <defs
     id="defs1">
    <linearGradient
       x1="0"
       y1="0"
       x2="1"
       y2="0"
       gradientUnits="userSpaceOnUse"
       gradientTransform="matrix(0,-37.189262,-37.189262,0,191.0275,306.02518)"
       spreadMethod="pad"
       id="linearGradient791">
      <stop
         style="stop-opacity:1;stop-color:#34301b"
         offset="0"
         id="stop788" />
      <stop
         style="stop-opacity:1;stop-color:#4f4f14"
         offset="0.485671"
         id="stop789" />
      <stop
         style="stop-opacity:1;stop-color:#33301b"
         offset="0.939768"
         id="stop790" />
      <stop
         style="stop-opacity:1;stop-color:#33301b"
         offset="1"
         id="stop791" />
    </linearGradient>
    <linearGradient
       x1="0"
       y1="0"
       x2="1"
       y2="0"
       gradientUnits="userSpaceOnUse"
       gradientTransform="matrix(0,-72.081802,-72.081802,0,121.512,320.99091)"
       spreadMethod="pad"
       id="linearGradient805">
      <stop
         style="stop-opacity:1;stop-color:#34301b"
         offset="0"
         id="stop802" />
      <stop
         style="stop-opacity:1;stop-color:#4f4f14"
         offset="0.485671"
         id="stop803" />
      <stop
         style="stop-opacity:1;stop-color:#33301b"
         offset="0.939768"
         id="stop804" />
      <stop
         style="stop-opacity:1;stop-color:#33301b"
         offset="1"
         id="stop805" />
    </linearGradient>
  </defs>
  <sodipodi:namedview
     id="namedview1"
     pagecolor="#ffffff"
     bordercolor="#000000"
     borderopacity="0.25"
     inkscape:showpageshadow="2"
     inkscape:pageopacity="0.0"
     inkscape:pagecheckerboard="0"
     inkscape:deskcolor="#d1d1d1"
     inkscape:zoom="2.0598044"
     inkscape:cx="3678.9902"
     inkscape:cy="322.11797"
     inkscape:window-width="2560"
     inkscape:window-height="1369"
     inkscape:window-x="1912"
     inkscape:window-y="-8"
     inkscape:window-maximized="1"
     inkscape:current-layer="layer-MC0">
    <inkscape:page
       x="0"
       y="0"
       width="167.4541"
       height="92.124603"
       id="page2"
       margin="0"
       bleed="0" />
  </sodipodi:namedview>
  <g
     id="layer-MC0"
     inkscape:groupmode="layer"
     inkscape:label="圖層 1"
     transform="translate(-3387.1551,-138.14134)">
    <path
       id="path791"
       d="m 163.876,303.603 c -2.833,-2.314 -6.216,-3.799 -6.435,-6.735 v 0 c -0.201,-2.68 -0.3,-4.721 2.397,-7.069 v 0 c 3.399,-2.959 7.68,-4.988 8.049,-8.658 v 0 c 0.179,-1.787 0.183,-4.315 -0.772,-6.029 v 0 c -0.635,-1.14 -1.984,-2.157 -2.448,-3.326 v 0 c -0.107,-0.27 -0.12,-0.553 -0.182,-0.826 v 0 c -0.015,-0.061 -0.06,-0.126 -0.162,-0.062 v 0 c -0.175,1.793 -2.441,3.214 -3.055,4.955 v 0 c -0.642,1.819 -0.486,4.302 -0.264,6.163 v 0 c 0.062,0.519 -0.048,1.028 0.729,1.438 v 0 l -4.532,10e-4 c 0.132,-0.204 0.29,-0.383 0.327,-0.604 v 0 c 0.425,-2.55 -0.978,-5.488 1.141,-7.879 v 0 c 1.074,-1.212 2.916,-2.22 4.345,-3.309 v 0 c 0.57,-0.434 1.143,-0.867 1.349,-1.39 v 0 c 0.188,0.344 0.469,0.648 0.816,0.956 v 0 c 1.6,1.423 3.998,2.594 5.204,4.158 v 0 c 1.808,2.347 0.574,5.196 0.899,7.671 v 0 c -0.85,4.122 -9.003,6.818 -10.187,10.851 v 0 c -0.352,1.201 -0.303,3.074 -0.001,4.287 v 0 c 0.465,1.873 2.638,3.308 3.219,5.182 v 0 c 0.032,0.106 -0.105,0.343 0.171,0.308 v 0 c 0.04,-0.524 0.235,-1.073 0.544,-1.576 v 0 c 0.638,-1.038 1.798,-1.962 2.32,-3.049 v 0 c 0.682,-1.421 0.751,-3.933 0.453,-5.406 v 0 c -0.084,-0.42 -0.219,-0.925 -0.808,-1.232 v 0 h 4.613 c -0.13,0.212 -0.29,0.421 -0.327,0.646 v 0 c -0.23,1.405 0.131,2.991 0.005,4.424 v 0 c -0.21,2.393 -3.558,3.825 -5.862,5.696 v 0 c -0.444,0.361 -0.877,0.736 -1.019,1.164 v 0 z m 19.262,0.375 c -0.685,-1.064 -2.684,-2.104 -3.88,-3.048 v 0 c -1.234,-0.974 -2.221,-2.032 -2.544,-3.193 v 0 c -0.259,-8.212 0.068,-16.447 -0.165,-24.655 v 0 c 0.023,-0.614 -0.523,-1.194 -1.423,-1.599 v 0 l -0.849,-0.209 h 7.606 l -0.728,0.271 c -1.016,0.518 -1.173,1.225 -1.21,1.917 v 0 c -0.119,2.253 0.007,4.545 0,6.803 v 0 c -0.018,5.581 -0.165,11.15 0,16.728 v 0 c 0.054,1.821 0.702,2.491 1.97,4.111 v 0 c 0.689,0.88 1.261,1.744 1.264,2.707 v 0 c 0.096,0.068 0.147,0 0.162,-0.061 v 0 c 0.052,-0.221 0.031,-0.468 0.102,-0.699 v 0 c 0.586,-1.906 3.083,-3.548 3.057,-5.558 v 0 c -0.076,-8.255 0.135,-16.521 -0.107,-24.769 v 0 c -0.162,-0.478 -0.449,-0.943 -1.189,-1.263 v 0 l -0.649,-0.187 7.606,0.042 c -1.716,0.228 -2.227,1.207 -2.35,2.021 v 0 c -0.052,8.105 0.122,16.217 -0.088,24.316 v 0 c -0.319,1.426 -1.368,2.402 -2.885,3.561 v 0 c -1.267,0.968 -2.984,1.901 -3.538,3.056 v 0 c -0.175,-0.075 -0.098,-0.193 -0.162,-0.292 m 30.079,-3.24 c -1.588,-1.228 -2.524,-2.284 -2.685,-3.789 v 0 c -0.203,-1.901 -0.252,-4.557 1.315,-6.288 v 0 c 2.7,-2.98 8.605,-5.52 9.122,-8.98 v 0 c 0.267,-1.789 0.246,-4.68 -0.605,-6.402 v 0 c -0.641,-1.299 -2.178,-2.494 -2.677,-3.797 v 0 c -0.07,-0.182 -0.072,-0.42 -0.115,-0.604 v 0 c -0.014,-0.063 -0.064,-0.128 -0.162,-0.063 v 0 c -0.012,1.263 -1.417,2.35 -2.245,3.494 v 0 c -1.332,1.841 -1.274,3.803 -1.239,5.744 v 0 c 0.014,0.786 -0.088,2.303 0.433,2.993 v 0 c 0.101,0.134 0.304,0.251 0.461,0.367 v 0 h -4.531 c 0.254,-0.287 0.363,-0.583 0.403,-0.898 v 0 c 0.221,-1.722 -0.18,-3.566 -0.002,-5.298 v 0 c 0.158,-1.539 1.155,-2.613 2.803,-3.853 v 0 c 1.37,-1.032 3.141,-1.966 3.997,-3.154 v 0 l 0.348,0.447 c 2.108,1.981 5.499,3.463 6.374,5.771 v 0 c 0.511,1.349 0.254,2.648 0.234,4.005 v 0 c -0.029,1.955 0.326,3.237 -1.465,5.08 v 0 c -2.777,2.861 -8.242,5.318 -8.888,8.6 v 0 c -0.244,1.237 -0.229,2.889 0.102,4.118 v 0 c 0.439,1.633 2.389,2.951 3.08,4.544 v 0 l 0.295,0.786 c 0.109,-0.504 0.244,-1.014 0.529,-1.501 v 0 c 0.557,-0.952 1.731,-1.842 2.261,-2.797 v 0 c 0.531,-0.959 0.677,-2.242 0.695,-3.23 v 0 c 0.015,-0.766 0.064,-3.007 -0.661,-3.585 v 0 c -0.092,-0.073 -0.288,-0.035 -0.232,-0.15 v 0 l 4.493,-10e-4 0.198,0.064 c -0.239,0.129 -0.371,0.406 -0.402,0.584 v 0 c -0.039,0.22 0.079,0.392 0.084,0.582 v 0 c 0.024,0.963 -0.05,1.931 -0.069,2.88 v 0 c -0.04,2.107 -0.529,2.838 -2.863,4.54 v 0 c -1.443,1.052 -3.393,2.015 -4.072,3.282 v 0 c -0.762,-1.353 -2.834,-2.348 -4.314,-3.491 m -15,1.431 c -2.188,-1.611 -4.46,-2.964 -4.684,-5.051 v 0 c -0.203,-1.906 -0.277,-4.762 1.256,-6.49 v 0 c 2.363,-2.663 7.79,-5.268 8.678,-8.166 v 0 c 0.605,-1.973 0.545,-5.445 -0.467,-7.369 v 0 c -0.641,-1.221 -1.988,-2.315 -2.467,-3.567 v 0 c -0.091,-0.236 -0.09,-0.485 -0.17,-0.721 v 0 c -0.013,-0.042 0.075,-0.096 -0.108,-0.115 v 0 c 0.017,1.479 -1.71,2.729 -2.548,4.089 v 0 c -1.142,1.849 -1.026,4.931 -0.855,6.905 v 0 c 0.032,0.381 0.115,1.043 0.393,1.382 v 0 c 0.107,0.131 0.247,0.239 0.419,0.347 v 0 h -4.451 c 0.29,-0.24 0.373,-0.611 0.408,-0.895 v 0 c 0.265,-2.164 -0.579,-4.705 0.505,-6.79 v 0 c 0.926,-1.777 3.639,-3.081 5.37,-4.615 v 0 c 0.335,-0.298 0.697,-0.613 0.759,-0.965 v 0 l 0.39,0.528 c 1.707,1.743 4.77,3.167 5.862,5.071 v 0 c 0.97,1.693 0.776,4.863 0.629,6.687 v 0 c -0.377,4.638 -9.139,7.197 -10.109,11.393 v 0 c -0.317,1.368 -0.297,3.3 0.175,4.653 v 0 c 0.57,1.637 2.521,3.006 3.035,4.697 v 0 c 0.032,0.104 -0.171,0.388 0.178,0.384 v 0 c 0.024,-0.601 0.325,-1.256 0.705,-1.827 v 0 c 0.394,-0.591 0.998,-1.138 1.439,-1.719 v 0 c 1.379,-1.822 1.397,-4.415 1.088,-6.362 v 0 c -0.074,-0.468 -0.106,-1.021 -0.804,-1.355 v 0 h 4.612 c -0.183,0.205 -0.362,0.418 -0.403,0.647 v 0 c -0.038,0.22 0.079,0.392 0.084,0.582 v 0 c 0.028,1.291 0.177,2.866 -0.093,4.127 v 0 c -0.494,2.305 -3.957,3.794 -6.074,5.713 v 0 l -0.714,0.862 c -0.157,-0.762 -1.2,-1.444 -2.038,-2.06"
       transform="matrix(1.3333333,0,0,-1.3333333,3254.8053,566.55867)"
       style="fill:url(#linearGradient791);stroke:none" />
    <path
       id="path792"
       d="M 0,0 C -0.057,0.142 -0.095,0.12 -0.121,0.039 -0.146,0.12 -0.185,0.142 -0.242,0 -0.298,-2.311 -0.591,-5.477 -1.7,-6.798 c 0.121,-0.164 0.235,-0.166 0.359,-0.392 0.978,-1.784 0.968,-5.732 1.22,-8.088 0.252,2.356 0.242,6.304 1.22,8.088 0.124,0.226 0.238,0.228 0.359,0.392 C 0.349,-5.477 0.056,-2.311 0,0"
       style="fill:#7d320f;fill-opacity:1;fill-rule:nonzero;stroke:none"
       transform="matrix(1.3333333,0,0,-1.3333333,3499.2583,175.53707)" />
    <path
       id="path793"
       d="m 0,0 c 1.354,0 2.541,-1.334 2.541,-2.855 0,-1.521 -1.187,-2.856 -2.541,-2.856 -1.362,0 -2.557,1.335 -2.557,2.856 C -2.557,-1.334 -1.362,0 0,0 m 0,0.514 c -2.092,0 -3.73,-1.48 -3.73,-3.369 0,-1.921 1.603,-3.37 3.73,-3.37 2.117,0 3.714,1.449 3.714,3.37 0,1.889 -1.632,3.369 -3.714,3.369"
       style="fill:#7d320f;fill-opacity:1;fill-rule:nonzero;stroke:none"
       transform="matrix(1.3333333,0,0,-1.3333333,3484.4551,213.7892)" />
    <path
       id="path794"
       d="M 0,0 C -0.077,-0.076 -0.149,-0.159 -0.216,-0.25 -0.192,-0.115 -0.117,-0.028 0,0 m 5.692,-2.995 c -0.194,0 -0.315,0.137 -0.315,0.358 v 1.854 c 0,0.746 -0.572,1.288 -1.359,1.288 C 3.4,0.505 2.861,0.185 2.513,-0.354 2.343,0.162 1.849,0.505 1.217,0.505 0.879,0.505 0.563,0.409 0.291,0.233 0.279,0.333 0.194,0.411 0.092,0.411 h -1.615 c -0.111,0 -0.201,-0.09 -0.201,-0.2 0,-0.111 0.09,-0.201 0.201,-0.201 0.197,0 0.315,-0.137 0.315,-0.367 v -2.308 c 0,-0.219 -0.106,-0.33 -0.315,-0.33 -0.111,0 -0.201,-0.09 -0.201,-0.2 0,-0.111 0.09,-0.201 0.201,-0.201 h 1.615 c 0.11,0 0.2,0.09 0.2,0.201 0,0.11 -0.09,0.2 -0.2,0.2 -0.195,0 -0.316,0.126 -0.316,0.33 v 0.983 c 0,0.568 0.466,1.673 1.321,1.673 0.374,0 0.623,-0.2 0.705,-0.399 C 1.876,-0.591 1.823,-0.785 1.652,-0.953 1.614,-0.99 1.593,-1.042 1.593,-1.095 v -1.532 c 0,-0.231 -0.118,-0.368 -0.316,-0.368 -0.11,0 -0.2,-0.09 -0.2,-0.2 0,-0.111 0.09,-0.201 0.2,-0.201 h 1.616 c 0.11,0 0.2,0.09 0.2,0.201 0,0.11 -0.09,0.2 -0.2,0.2 -0.198,0 -0.316,0.134 -0.316,0.358 v 0.955 c 0,0.813 0.679,1.673 1.32,1.673 0.374,0 0.623,-0.2 0.705,-0.399 C 4.677,-0.591 4.624,-0.785 4.452,-0.953 4.414,-0.99 4.393,-1.042 4.393,-1.095 v -1.532 c 0,-0.231 -0.119,-0.368 -0.316,-0.368 -0.11,0 -0.2,-0.09 -0.2,-0.2 0,-0.111 0.09,-0.201 0.2,-0.201 h 1.615 c 0.111,0 0.201,0.09 0.201,0.201 0,0.11 -0.09,0.2 -0.201,0.2"
       style="fill:#7d320f;fill-opacity:1;fill-rule:nonzero;stroke:none"
       transform="matrix(1.3333333,0,0,-1.3333333,3492.0384,217.43573)" />
    <path
       id="path795"
       d="m 0,0 c -0.133,-0.113 -0.254,-0.245 -0.36,-0.391 v 0.037 c 0,0.13 0.041,0.349 0.315,0.349 0.016,0 0.03,0.001 0.045,0.005 m 3.15,-3.011 c -0.197,0 -0.315,0.134 -0.315,0.358 v 1.855 c 0,0.746 -0.641,1.288 -1.523,1.288 -0.432,0 -0.838,-0.139 -1.178,-0.386 0.013,0.028 0.021,0.059 0.021,0.091 0,0.11 -0.09,0.2 -0.2,0.2 H -1.66 c -0.111,0 -0.2,-0.09 -0.2,-0.2 0,-0.111 0.089,-0.2 0.2,-0.2 0.197,0 0.315,-0.138 0.315,-0.368 v -2.308 c 0,-0.219 -0.106,-0.33 -0.315,-0.33 -0.111,0 -0.2,-0.09 -0.2,-0.2 0,-0.11 0.089,-0.2 0.2,-0.2 h 1.615 c 0.11,0 0.2,0.09 0.2,0.2 0,0.11 -0.09,0.2 -0.2,0.2 -0.194,0 -0.315,0.126 -0.315,0.33 v 0.984 c 0,0.572 0.67,1.673 1.587,1.673 0.336,0 0.686,-0.213 0.797,-0.484 0.068,-0.165 0.03,-0.32 -0.114,-0.46 C 1.872,-1.006 1.851,-1.057 1.851,-1.111 v -1.532 c 0,-0.231 -0.119,-0.368 -0.316,-0.368 -0.11,0 -0.2,-0.09 -0.2,-0.2 0,-0.11 0.09,-0.2 0.2,-0.2 H 3.15 c 0.111,0 0.201,0.09 0.201,0.2 0,0.11 -0.09,0.2 -0.201,0.2"
       style="fill:#7d320f;fill-opacity:1;fill-rule:nonzero;stroke:none"
       transform="matrix(1.3333333,0,0,-1.3333333,3502.4799,217.4148)" />
    <path
       id="path796"
       d="M 0,0 C 0.346,0 0.587,0.257 0.587,0.626 0.587,0.995 0.346,1.252 0,1.252 -0.346,1.252 -0.587,0.995 -0.587,0.626 -0.587,0.257 -0.346,0 0,0"
       style="fill:#7d320f;fill-opacity:1;fill-rule:nonzero;stroke:none"
       transform="matrix(1.3333333,0,0,-1.3333333,3508.3927,216.09773)" />
    <path
       id="path797"
       d="m 0,0 c -0.197,0 -0.315,0.137 -0.315,0.368 v 3.481 c 0,0.111 -0.09,0.2 -0.201,0.2 -0.11,0 -0.2,-0.089 -0.2,-0.2 0,-0.278 -0.143,-0.443 -0.384,-0.443 -0.11,0 -0.2,-0.09 -0.2,-0.2 V 0.368 C -1.3,0.137 -1.418,0 -1.615,0 c -0.111,0 -0.2,-0.09 -0.2,-0.2 0,-0.111 0.089,-0.2 0.2,-0.2 H 0 c 0.11,0 0.2,0.089 0.2,0.2 C 0.2,-0.09 0.11,0 0,0"
       style="fill:#7d320f;fill-opacity:1;fill-rule:nonzero;stroke:none"
       transform="matrix(1.3333333,0,0,-1.3333333,3509.4695,221.4292)" />
    <path
       id="path798"
       d="m 0,0 c 0,0.11 -0.09,0.2 -0.2,0.2 h -1.151 c -0.11,0 -0.2,-0.09 -0.2,-0.2 0,-0.11 0.09,-0.2 0.2,-0.2 0.101,0 0.162,-0.024 0.175,-0.048 0.014,-0.022 0.018,-0.095 -0.052,-0.227 l -1.153,-2.195 -1.13,2.187 c -0.061,0.116 -0.07,0.201 -0.051,0.233 0.014,0.023 0.069,0.05 0.175,0.05 0.111,0 0.2,0.09 0.2,0.2 0,0.11 -0.089,0.2 -0.2,0.2 h -1.71 c -0.11,0 -0.2,-0.09 -0.2,-0.2 0,-0.11 0.09,-0.2 0.2,-0.2 0.186,0 0.373,-0.12 0.468,-0.301 L -3.04,-3.5 c 0.044,-0.082 0.142,-0.124 0.229,-0.099 0.262,0.075 0.507,-0.089 0.604,-0.277 0.035,-0.069 0.105,-0.108 0.178,-0.108 0.031,0 0.062,0.007 0.092,0.022 0.068,0.036 0.108,0.105 0.108,0.177 0,0.032 -0.007,0.063 -0.023,0.093 l -0.245,0.474 1.431,2.719 C -0.573,-0.32 -0.386,-0.2 -0.2,-0.2 -0.09,-0.2 0,-0.11 0,0"
       style="fill:#7d320f;fill-opacity:1;fill-rule:nonzero;stroke:none"
       transform="matrix(1.3333333,0,0,-1.3333333,3516.3236,217.15507)" />
    <path
       id="path799"
       d="M 0,0 C 0.216,0.562 0.702,0.962 1.209,0.962 1.692,0.962 2.107,0.592 2.31,0 Z M 3.227,-1.136 H 3.124 c -0.066,0 -0.129,-0.033 -0.166,-0.088 -0.394,-0.584 -0.915,-0.867 -1.595,-0.867 -1.093,0 -1.483,0.747 -1.483,1.446 0,0.052 0.003,0.101 0.008,0.15 h 3.339 c 0.062,0 0.121,0.029 0.159,0.077 0.037,0.049 0.05,0.112 0.035,0.172 -0.257,1.012 -1.118,1.665 -2.195,1.665 -1.329,0 -2.409,-0.926 -2.409,-2.064 0,-1.137 1.019,-1.932 2.478,-1.932 0.959,0 1.547,0.317 2.098,1.129 0.042,0.061 0.045,0.14 0.011,0.206 -0.035,0.065 -0.102,0.106 -0.177,0.106"
       style="fill:#7d320f;fill-opacity:1;fill-rule:nonzero;stroke:none"
       transform="matrix(1.3333333,0,0,-1.3333333,3517.3353,218.65373)" />
    <path
       id="path800"
       d="m 0,0 c -0.141,-0.124 -0.265,-0.265 -0.37,-0.417 v 0.051 c 0,0.228 0.115,0.358 0.315,0.358 0.02,0 0.037,0.003 0.055,0.008 M 2.241,0.117 C 2.241,0.191 2.2,0.259 2.135,0.294 1.895,0.42 1.607,0.487 1.303,0.487 0.829,0.487 0.437,0.336 0.122,0.099 c 0.015,0.028 0.023,0.06 0.023,0.093 0,0.111 -0.089,0.201 -0.2,0.201 H -1.67 c -0.11,0 -0.2,-0.09 -0.2,-0.201 0,-0.11 0.09,-0.2 0.2,-0.2 0.197,0 0.315,-0.137 0.315,-0.367 v -2.309 c 0,-0.218 -0.106,-0.329 -0.315,-0.329 -0.11,0 -0.2,-0.09 -0.2,-0.2 0,-0.111 0.09,-0.201 0.2,-0.201 h 1.615 c 0.111,0 0.2,0.09 0.2,0.201 0,0.11 -0.089,0.2 -0.2,0.2 -0.194,0 -0.315,0.126 -0.315,0.329 V -1.7 c 0,0.566 0.668,1.673 1.474,1.673 0.351,0 0.637,-0.214 0.747,-0.56 0.029,-0.094 0.126,-0.153 0.22,-0.137 0.098,0.015 0.17,0.099 0.17,0.198 z"
       style="fill:#7d320f;fill-opacity:1;fill-rule:nonzero;stroke:none"
       transform="matrix(1.3333333,0,0,-1.3333333,3524.5801,217.4116)" />
    <path
       id="path801"
       d="m 0,0 c -1.124,0 -2.038,-0.515 -2.038,-1.146 0,-0.668 0.913,-0.939 1.797,-1.201 0.55,-0.163 1.303,-0.386 1.303,-0.634 0,-0.212 -0.478,-0.548 -1.044,-0.548 -0.485,0 -0.954,0.258 -1.224,0.675 -0.037,0.057 -0.101,0.091 -0.168,0.091 H -2.01 c -0.077,0 -0.146,-0.044 -0.179,-0.113 -0.035,-0.069 -0.025,-0.151 0.023,-0.211 0.512,-0.645 1.134,-0.909 2.149,-0.909 1.277,0 2.038,0.415 2.038,1.109 0,0.84 -1.138,1.2 -2.053,1.49 -0.384,0.121 -1.028,0.325 -1.056,0.458 0.002,0.125 0.537,0.472 1.071,0.472 0.422,0 0.811,-0.243 1.065,-0.668 0.036,-0.061 0.101,-0.098 0.172,-0.098 h 0.635 c 0.077,0 0.147,0.044 0.18,0.113 0.033,0.069 0.026,0.15 -0.022,0.211 C 1.54,-0.306 0.862,0 0,0"
       style="fill:#7d320f;fill-opacity:1;fill-rule:nonzero;stroke:none"
       transform="matrix(1.3333333,0,0,-1.3333333,3530.5007,216.76187)" />
    <path
       id="path802"
       d="M 0,0 C 0.216,0.562 0.702,0.962 1.209,0.962 1.692,0.962 2.107,0.592 2.311,0 Z M 3.404,-1.242 C 3.369,-1.177 3.302,-1.136 3.227,-1.136 H 3.124 c -0.066,0 -0.129,-0.033 -0.166,-0.088 -0.394,-0.584 -0.915,-0.867 -1.595,-0.867 -1.093,0 -1.483,0.747 -1.483,1.446 0,0.052 0.003,0.101 0.008,0.15 h 3.339 c 0.062,0 0.121,0.029 0.159,0.077 0.037,0.049 0.05,0.112 0.035,0.172 -0.257,1.012 -1.118,1.665 -2.195,1.665 -1.329,0 -2.409,-0.926 -2.409,-2.064 0,-1.137 1.019,-1.932 2.478,-1.932 0.959,0 1.547,0.317 2.098,1.129 0.041,0.061 0.045,0.14 0.011,0.206"
       style="fill:#7d320f;fill-opacity:1;fill-rule:nonzero;stroke:none"
       transform="matrix(1.3333333,0,0,-1.3333333,3535.114,218.65373)" />
    <path
       id="path805"
       d="m 104.787,308.194 c -4.34,-8.669 -7.214,-20.768 -4.415,-34.507 v 0 c 0.748,-3.593 2.076,-7.185 3.852,-10.346 v 0 l 1.586,2.525 c -6.368,11.023 -3.259,19.957 -2.472,21.433 v 0 c -1.109,-1.811 -2.247,-4.219 -2.632,-6.668 v 0 c -0.063,-0.408 -0.121,-0.81 -0.167,-1.213 v 0 c -0.103,0.782 -0.19,1.467 -0.258,1.944 v 0 c -2.34,16.795 4.598,28.178 13.583,34.029 v 0 c -0.5,-0.816 -0.903,-1.719 -1.179,-2.701 v 0 c -1.627,-5.921 0.92,-15.556 7.398,-22.298 v 0 c 0.598,-0.615 0.972,-0.633 1.316,-0.293 v 0 c 0.346,0.344 0.599,0.925 0.926,1.298 v 0 c -5.116,3.277 -8.249,10.302 -8.777,16.463 v 0 c -0.299,3.461 0.424,6.255 1.563,8.278 v 0 c 0.173,0.098 0.345,0.19 0.517,0.282 v 0 c -0.678,-1.161 -1.144,-2.61 -1.288,-4.478 v 0 c -1.069,-13.405 8.813,-19.394 8.934,-19.148 v 0 c 1.39,2.8 0.896,6.105 -1.3,9.957 v 0 c -0.66,1.149 -1.264,1.804 -1.804,3.271 v 0 c -2.306,6.3 -0.805,10.404 2.402,12.214 v 0 c 0.219,0.121 0.443,0.236 0.679,0.34 v 0 c 1.856,0.81 3.632,0.741 6.001,-1.225 v 0 c 0.604,-0.5 1.109,-1.063 1.522,-1.667 v 0 c 3.002,-4.345 1.484,-10.887 0.438,-12.887 v 0 l 6.904,10.847 c -0.57,-0.34 -1.087,-0.46 -1.593,-0.42 v 0 c -1.46,1.954 -3.115,3.639 -4.921,4.914 v 0 c -3.24,2.223 -6.399,3.174 -9.372,3.175 v 0 c -7.533,0 -13.886,-6.104 -17.443,-13.119 m 32.173,0.759 c 1.707,-2.828 2.96,-6.093 3.783,-9.329 v 0 c 3.172,-13.359 1.057,-25.592 -3.501,-33.806 v 0 c -0.012,-0.011 -0.017,-0.029 -0.024,-0.04 v 0 c 1.081,3.247 2.984,12.629 -4.304,23.108 v 0 c -3.162,4.541 -5.893,5.576 -8.479,3.484 v 0 c 1.862,-0.392 3.603,-1.288 5.443,-3.179 v 0 c 5.558,-5.726 8.209,-17.579 7.128,-23.787 v 0 c -0.178,-0.305 -0.368,-0.61 -0.558,-0.908 v 0 c 1.851,8.461 -4.483,26.085 -13.071,26.706 v 0 c -0.195,-0.316 -0.408,-0.597 -0.598,-0.891 v 0 c -0.195,-0.299 -0.35,-0.494 -0.552,-0.81 v 0 c -0.322,-0.534 -0.086,-1.483 0.397,-2.116 v 0 c 0.299,-0.397 0.672,-0.758 0.857,-1.006 v 0 c 2,-2.707 3.575,-4.483 5.167,-7.892 v 0 c 3.127,-6.737 3.604,-13.71 1.293,-17.975 v 0 c -1.345,-2.488 -3.098,-4.248 -5.024,-5.242 v 0 c -2.08,-1.069 -4.38,-1.236 -6.587,-0.437 v 0 c -3.874,1.385 -7.484,5.725 -9.29,13.342 v 0 c -0.631,-0.954 -1.804,-2.851 -3.046,-4.863 v 0 c -0.184,-0.31 -0.374,-0.61 -0.564,-0.92 v 0 c -0.108,-0.178 -0.217,-0.362 -0.321,-0.529 v 0 c 1.679,-2.661 3.69,-4.932 5.938,-6.541 v 0 c 7.248,-5.025 13.658,-3.363 18.751,0.845 v 0 c 2.121,1.747 4.018,3.948 5.645,6.288 v 0 c 0.713,1.024 1.373,2.069 1.982,3.121 v 0 c 4.455,8.088 7.899,18.832 5.606,32.168 v 0 c -0.806,4.552 -2.495,9.151 -4.864,13.037 v 0 c -0.397,-0.61 -0.799,-1.219 -1.207,-1.828 m -34.3,-28.735 c -0.08,-3.424 0.758,-10.016 3.22,-14.241 v 0 l 2.644,4.209 c -1.886,7.203 -1.829,21.137 6.047,20.24 v 0 c 1.346,-0.154 2.123,-2.112 2.151,-4.456 v 0 c 0.024,1.954 -0.392,3.733 -1.167,4.606 v 0 c -0.26,0.161 -0.522,0.316 -0.789,0.46 v 0 c -1.002,0.539 -2.06,0.795 -3.116,0.795 v 0 c -4.427,10e-4 -8.828,-4.508 -8.99,-11.613"
       transform="matrix(1.3333333,0,0,-1.3333333,3254.8053,566.55867)"
       style="fill:url(#linearGradient805);stroke:none" />
    <path
       id="path806"
       d="m 0,0 c -0.638,-0.696 -4.145,-6.656 -4.875,-7.093 l -6.903,-10.847 c -1.19,-2.282 -3.242,-4.898 -3.242,-4.898 l 0.23,-0.391 c 0,0 1.092,1.661 2.695,4.11 0.11,0.167 0.225,0.334 0.334,0.512 0.132,0.195 0.27,0.396 0.402,0.603 0.368,0.569 0.759,1.162 1.161,1.771 0.19,0.287 0.386,0.581 0.581,0.879 0.96,1.46 1.972,3.001 2.978,4.536 0.408,0.609 0.81,1.224 1.207,1.822 h 0.006 c 0.149,0.236 0.304,0.46 0.454,0.69 0.603,0.919 1.195,1.805 1.747,2.638 0.27,0.414 0.535,0.811 0.788,1.196 0.632,0.948 1.207,1.816 1.696,2.535 0.063,0.097 0.126,0.19 0.183,0.281 0.006,0.012 0.018,0.023 0.023,0.035 0.092,0.138 0.184,0.264 0.265,0.391 0.034,0.052 0.069,0.103 0.103,0.155 0.052,0.069 0.098,0.144 0.144,0.213 0.121,0.172 0.23,0.333 0.328,0.477 z m -27.435,-30.161 c 0.776,-0.873 1.191,-2.652 1.167,-4.606 0.023,-1.918 -0.455,-4.095 -1.536,-5.758 -1.179,-1.811 -6.393,-9.985 -6.663,-10.025 l -2.643,-4.21 c 10e-4,-0.003 0.003,-0.006 0.005,-0.01 0.046,-0.074 0.264,-0.425 0.264,-0.425 0.736,1.144 1.46,2.288 2.196,3.426 0.052,0.075 0.098,0.149 0.144,0.224 0.011,0.018 0.023,0.035 0.029,0.046 2.334,3.633 4.685,7.232 7.082,10.773 0.764,1.12 1.736,1.937 2.897,2.305 1.299,0.396 2.696,0.321 4.236,-0.639 1.242,-0.781 2.162,-2.345 3.955,-6.438 l 0.201,0.133 c -1.015,3.006 -5.175,11.396 -11.334,15.204 m -9.745,-24.71 -1.586,-2.525 c -1.201,-1.857 -2.409,-3.708 -3.645,-5.525 0.15,-0.207 0.299,-0.413 0.449,-0.615 0.103,0.179 0.212,0.368 0.333,0.569 0.063,0.098 0.127,0.207 0.19,0.311 0.011,0.023 0.023,0.04 0.04,0.069 0.109,0.178 0.224,0.368 0.339,0.563 0.104,0.167 0.207,0.334 0.311,0.512 0.166,0.276 0.345,0.557 0.523,0.851 0.58,0.959 1.195,1.948 1.724,2.805 0.328,0.534 0.632,1.011 0.88,1.414 0.431,0.69 0.707,1.126 0.707,1.126 -0.041,0.058 -0.201,0.328 -0.248,0.414 -0.006,0.011 -0.011,0.021 -0.017,0.031"
       style="fill:#7d320f;fill-opacity:1;fill-rule:nonzero;stroke:none"
       transform="matrix(1.3333333,0,0,-1.3333333,3445.4587,138.90947)" />
  </g>
</svg>
